<!DOCTYPE svg PUBLIC "-//W3C//DTD SVG 1.1//EN" "http://www.w3.org/Graphics/SVG/1.1/DTD/svg11.dtd">


<svg fill="#404040"  width="60px" version="1.1" id="Layer_1" xmlns="http://www.w3.org/2000/svg" xmlns:xlink="http://www.w3.org/1999/xlink" viewBox="-51.2 -51.2 614.40 614.40" xml:space="preserve" stroke="#404040" stroke-width="0.0051199800000000005" transform="matrix(1, 0, 0, 1, 0, 0)">

<g id="SVGRepo_bgCarrier" stroke-width="0" transform="translate(0,0), scale(1)">

<path transform="translate(-51.2, -51.2), scale(19.2)" d="M16,24.929801662305465C18.172271687172667,25.241391156818562,19.807637085051038,27.6263037077529,21.992145627901362,27.41707961211172C24.163957017396292,27.20907160254935,26.13326070162141,25.645450164274024,27.360688671347667,23.841717195479674C28.586461405533555,22.040416632487478,28.589929627090424,19.718843373519878,28.711111494914167,17.543408366671752C28.826802494228996,15.466544439695667,28.861296099045926,13.345475558593783,28.052121881523373,11.429233072843676C27.25503362453217,9.541611903183176,25.94291135947257,7.803258928779153,24.166734809801177,6.781662024916789C22.481458509441048,5.81234788161327,20.42294345654035,5.7954343772033825,18.4831460180336,5.925480578710477C16.850119407617875,6.0349605189500375,15.455520787451572,6.968560282179885,13.897572957772564,7.470118182764855C12.452711185463869,7.935269725935552,11.060078230596545,8.346149486994761,9.60646764482215,8.78319383728169C7.213205112743367,9.502755099860963,4.227885057432962,9.060652593119904,2.5247108497200976,10.889496921169311C0.9043126366340144,12.629457559231934,0.7133131099610932,15.470981635546828,1.2135392708243593,17.795401386574568C1.7061850142296557,20.084596926157772,3.425766321673111,21.93886090611042,5.225077427215412,23.43739205107042C6.811910772405024,24.758964058436543,8.801339288191134,25.535085628025687,10.84690010879305,25.81841152743799C12.598924323130747,26.061080350246836,14.249169731554387,24.678663500562333,16,24.929801662305465" fill="#fff700" strokewidth="0"/>

</g>

<g id="SVGRepo_tracerCarrier" stroke-linecap="round" stroke-linejoin="round" stroke="#CCCCCC" stroke-width="12.287952"/>

<g id="SVGRepo_iconCarrier"> <g> <g> <path d="M245.396,209.244l-69.321-8.403l-44.679-29.696c3.975,0.977,14.954,4.171,26.681,8.76 c-1.387-4.78-3.935-9.194-7.478-12.82c-5.686-5.818-13.46-9.122-21.594-9.18l-28.055-0.201 c-16.96-0.122-30.764,13.632-30.717,30.582l0.283,103.442c0.022,8.114,3.277,15.883,9.043,21.592 c4.068,4.026,9.151,6.786,14.64,8.045H55.863L29.871,189.138c-1.606-8.17-9.532-13.489-17.7-11.885 c-8.17,1.606-13.491,9.531-11.885,17.7L28.67,339.35c1.39,7.07,7.588,12.168,14.793,12.168H84.53v52.221L37.98,429.231 c-4.868,2.667-6.654,8.774-3.988,13.643s8.772,6.655,13.643,3.988l46.947-25.708l46.947,25.708 c4.871,2.668,10.978,0.878,13.643-3.988c2.667-4.868,0.881-10.976-3.988-13.643l-46.551-25.492v-52.221h44.362 c8.326,0,15.076-6.75,15.076-15.076c0-5.044-2.485-9.496-6.288-12.233l14.026,3.27v99.103c0,12.07,9.785,21.855,21.855,21.855 s21.855-9.785,21.855-21.855v-116.45c0-10.16-6.999-18.979-16.893-21.285l-40.768-9.504l0.512-31.387l-41.722-42.876 l42.864,28.489c2.367,1.573,5.068,2.571,7.89,2.912l73.612,8.923c10.019,1.21,19.065-5.932,20.272-15.889 C262.495,219.531,255.382,210.456,245.396,209.244z"/> </g> </g> <g> <g> <circle cx="138.691" cy="103.756" r="40.197"/> </g> </g> <g> <g> <path d="M498.263,256.437H229.056c-7.586,0-13.736,6.15-13.736,13.736s6.15,13.736,13.736,13.736h6.68v149.468 c0,8.317,6.742,15.06,15.06,15.06h0.06c8.317,0,15.06-6.742,15.06-15.06V283.909h196.372v149.468c0,8.317,6.742,15.06,15.06,15.06 h0.06c8.317,0,15.06-6.742,15.06-15.06V283.909h5.792c7.586,0,13.736-6.15,13.736-13.736 C511.999,262.587,505.849,256.437,498.263,256.437z"/> </g> </g> <g> <g> <path d="M404.555,223.059h-20.489v-70.055l17.247-42.213c2.099-5.138-0.364-11.006-5.503-13.105 c-5.137-2.1-11.006,0.365-13.105,5.502c-15.214,37.235-24.536,60.052-39.599,96.916c-2.099,5.139,0.365,11.007,5.503,13.106 c5.141,2.1,11.007-0.366,13.105-5.502l2.251-5.508v30.909c0,5.551,4.499,10.05,10.05,10.05h30.539c5.551,0,10.05-4.5,10.05-10.05 C414.605,227.558,410.105,223.059,404.555,223.059z"/> </g> </g> <g> <g> <path d="M324.995,224.251H286.33c-5.551,0-10.05,4.499-10.05,10.05s4.499,10.05,10.05,10.05h38.665 c5.551,0,10.05-4.499,10.05-10.05S330.546,224.251,324.995,224.251z"/> </g> </g> </g>

</svg>